<?xml version="1.0" encoding="UTF-8" standalone="no"?>
<svg
   width="22.221819cm"
   height="17.919998cm"
   viewBox="363 185 431.7382 340.47996"
   version="1.1"
   id="svg21"
   xmlns="http://www.w3.org/2000/svg"
   xmlns:svg="http://www.w3.org/2000/svg">
  <defs
     id="defs21" />
  <rect
     style="fill:#ffffff;stroke-width:0.514048"
     id="rect21"
     width="431.73819"
     height="348.16"
     x="363"
     y="181.35713" />
  <g
     id="g2"
     transform="translate(15.825471,8.9018161)">
    <path
       style="fill:#ffffff"
       d="m 553.687,395 h 102.65 c 14.174,0 25.663,8.954 25.663,20 0,11.046 -11.489,20 -25.663,20 h -102.65 c -14.173,0 -25.662,-8.954 -25.662,-20 0,-11.046 11.489,-20 25.662,-20 z"
       id="path1" />
    <path
       style="fill:none;fill-opacity:0;stroke:#000000;stroke-width:2"
       d="m 553.687,395 h 102.65 c 14.174,0 25.663,8.954 25.663,20 0,11.046 -11.489,20 -25.663,20 h -102.65 c -14.173,0 -25.662,-8.954 -25.662,-20 0,-11.046 11.489,-20 25.662,-20"
       id="path2" />
    <text
       font-size="12.7998px"
       style="font-style:normal;font-weight:normal;font-family:sans-serif;text-anchor:middle;fill:#000000"
       x="605.01202"
       y="421"
       id="text2"><tspan
         x="605.01202"
         y="421"
         id="tspan2">Device discovery</tspan></text>
  </g>
  <g
     id="g4"
     transform="translate(15.825471,8.9018161)">
    <rect
       style="fill:#ffffff"
       x="443.25"
       y="223"
       width="128.5"
       height="69"
       id="rect2" />
    <rect
       style="fill:none;fill-opacity:0;stroke:#000000;stroke-width:2"
       x="443.25"
       y="223"
       width="128.5"
       height="69"
       id="rect3" />
    <text
       font-size="12.7998px"
       style="font-style:normal;font-weight:normal;font-family:sans-serif;text-anchor:middle;fill:#000000"
       x="507.5"
       y="255.2"
       id="text4"><tspan
         x="507.5"
         y="255.2"
         id="tspan3">Bootstrap from</tspan><tspan
         x="507.5"
         y="271.20001"
         id="tspan4">other radio module</tspan></text>
  </g>
  <g
     id="g5"
     transform="translate(15.825471,8.9018161)">
    <rect
       style="fill:#ffffff"
       x="365"
       y="445"
       width="143"
       height="62"
       id="rect4" />
    <rect
       style="fill:none;fill-opacity:0;stroke:#000000;stroke-width:2"
       x="365"
       y="445"
       width="143"
       height="62"
       id="rect5" />
    <text
       font-size="12.7998px"
       style="font-style:normal;font-weight:normal;font-family:sans-serif;text-anchor:middle;fill:#000000"
       x="436.5"
       y="481.70001"
       id="text5"><tspan
         x="436.5"
         y="481.70001"
         id="tspan5">Transfer messages</tspan></text>
  </g>
  <g
     id="g7"
     transform="translate(15.825471,8.9018161)">
    <rect
       style="fill:#ffffff"
       x="405.32501"
       y="333"
       width="131.35001"
       height="59"
       id="rect6" />
    <rect
       style="fill:none;fill-opacity:0;stroke:#000000;stroke-width:2"
       x="405.32501"
       y="333"
       width="131.35001"
       height="59"
       id="rect7" />
    <text
       font-size="12.7998px"
       style="font-style:normal;font-weight:normal;font-family:sans-serif;text-anchor:middle;fill:#000000"
       x="471"
       y="368.20001"
       id="text7"><tspan
         x="471"
         y="368.20001"
         id="tspan7">Merkle handshake</tspan></text>
  </g>
  <g
     id="g9"
     transform="translate(15.825471,8.9018161)">
    <polygon
       style="fill:#ffffff"
       points="693.095,241.754 770.496,289.338 693.095,336.921 615.694,289.338 "
       id="polygon7" />
    <polygon
       style="fill:none;fill-opacity:0;stroke:#000000;stroke-width:2"
       points="693.095,241.754 770.496,289.338 693.095,336.921 615.694,289.338 "
       id="polygon8" />
    <text
       font-size="12.7998px"
       style="font-style:normal;font-weight:normal;font-family:sans-serif;text-anchor:middle;fill:#000000"
       x="693.09497"
       y="287.03799"
       id="text9"><tspan
         x="693.09497"
         y="287.03799"
         id="tspan8">Should</tspan><tspan
         x="693.09497"
         y="303.03799"
         id="tspan9">bootstrap?</tspan></text>
  </g>
  <g
     id="g10"
     transform="translate(15.825471,8.9018161)">
    <polyline
       style="fill:none;fill-opacity:0;stroke:#000000;stroke-width:2"
       points="605.012,395 605.012,377 693.095,377 693.095,346.657 "
       id="polyline9" />
    <polygon
       style="fill:#000000"
       points="693.095,339.157 698.095,349.157 693.095,346.657 688.095,349.157 "
       id="polygon9" />
    <polygon
       style="fill:none;fill-opacity:0;stroke:#000000;stroke-width:2"
       points="693.095,339.157 698.095,349.157 693.095,346.657 688.095,349.157 "
       id="polygon10" />
  </g>
  <g
     id="g12"
     transform="translate(15.825471,8.9018161)">
    <polyline
       style="fill:none;fill-opacity:0;stroke:#000000;stroke-width:2"
       points="693.095,241.754 693.095,209 507.5,209 507.5,213.264 "
       id="polyline10" />
    <polygon
       style="fill:#000000"
       points="507.5,220.764 502.5,210.764 507.5,213.264 512.5,210.764 "
       id="polygon11" />
    <polygon
       style="fill:none;fill-opacity:0;stroke:#000000;stroke-width:2"
       points="507.5,220.764 502.5,210.764 507.5,213.264 512.5,210.764 "
       id="polygon12" />
  </g>
  <g
     id="g14"
     transform="translate(15.825471,8.9018161)">
    <polyline
       style="fill:none;fill-opacity:0;stroke:#000000;stroke-width:2"
       points="654.395,313.129 563.697,313.129 563.697,362.5 546.411,362.5 "
       id="polyline12" />
    <polygon
       style="fill:#000000"
       points="538.911,362.5 548.911,357.5 546.411,362.5 548.911,367.5 "
       id="polygon13" />
    <polygon
       style="fill:none;fill-opacity:0;stroke:#000000;stroke-width:2"
       points="538.911,362.5 548.911,357.5 546.411,362.5 548.911,367.5 "
       id="polygon14" />
  </g>
  <text
     font-size="12.7998px"
     style="font-style:normal;font-weight:normal;font-family:sans-serif;text-anchor:start;fill:#000000"
     x="587.8255"
     y="347.90182"
     id="text14"><tspan
       x="587.8255"
       y="347.90182"
       id="tspan14">no</tspan></text>
  <text
     font-size="12.7998px"
     style="font-style:normal;font-weight:normal;font-family:sans-serif;text-anchor:start;fill:#000000"
     x="603.8255"
     y="207.90181"
     id="text15"><tspan
       x="603.8255"
       y="207.90181"
       id="tspan15">yes</tspan></text>
  <g
     id="g16"
     transform="translate(15.825471,8.9018161)">
    <polyline
       style="fill:none;fill-opacity:0;stroke:#000000;stroke-width:2"
       points="443.25,257.5 384.325,257.5 384.325,362.5 395.589,362.5 "
       id="polyline15" />
    <polygon
       style="fill:#000000"
       points="403.089,362.5 393.089,367.5 395.589,362.5 393.089,357.5 "
       id="polygon15" />
    <polygon
       style="fill:none;fill-opacity:0;stroke:#000000;stroke-width:2"
       points="403.089,362.5 393.089,367.5 395.589,362.5 393.089,357.5 "
       id="polygon16" />
  </g>
  <g
     id="g19"
     transform="translate(15.825471,8.9018161)">
    <line
       style="fill:none;fill-opacity:0;stroke:#000000;stroke-width:2"
       x1="438.16199"
       y1="392"
       x2="436.80499"
       y2="435.26901"
       id="line18" />
    <polygon
       style="fill:#000000"
       points="436.57,442.765 431.886,432.613 436.805,435.269 441.881,432.927 "
       id="polygon18" />
    <polygon
       style="fill:none;fill-opacity:0;stroke:#000000;stroke-width:2"
       points="436.57,442.765 431.886,432.613 436.805,435.269 441.881,432.927 "
       id="polygon19" />
  </g>
  <g
     id="g20"
     transform="translate(15.825471,8.9018161)">
    <path
       style="fill:#ffffff"
       d="m 554.163,454 h 102.649 c 14.174,0 25.663,8.954 25.663,20 0,11.046 -11.489,20 -25.663,20 H 554.163 c -14.174,0 -25.663,-8.954 -25.663,-20 0,-11.046 11.489,-20 25.663,-20 z"
       id="path19" />
    <path
       style="fill:none;fill-opacity:0;stroke:#000000;stroke-width:2"
       d="m 554.163,454 h 102.649 c 14.174,0 25.663,8.954 25.663,20 0,11.046 -11.489,20 -25.663,20 H 554.163 c -14.174,0 -25.663,-8.954 -25.663,-20 0,-11.046 11.489,-20 25.663,-20"
       id="path20" />
    <text
       font-size="12.7998px"
       style="font-style:normal;font-weight:normal;font-family:sans-serif;text-anchor:middle;fill:#000000"
       x="605.487"
       y="480"
       id="text20"><tspan
         x="605.487"
         y="480"
         id="tspan20">Complete</tspan></text>
  </g>
  <g
     id="g21"
     transform="translate(15.825471,8.9018161)">
    <line
       style="fill:none;fill-opacity:0;stroke:#000000;stroke-width:2"
       x1="508"
       y1="476"
       x2="518.81"
       y2="474.94501"
       id="line20" />
    <polygon
       style="fill:#000000"
       points="526.274,474.217 516.807,480.164 518.81,474.945 515.836,470.212 "
       id="polygon20" />
    <polygon
       style="fill:none;fill-opacity:0;stroke:#000000;stroke-width:2"
       points="526.274,474.217 516.807,480.164 518.81,474.945 515.836,470.212 "
       id="polygon21" />
  </g>
</svg>
